<svg width="512" height="512" viewBox="0 0 512 512" fill="none" xmlns="http://www.w3.org/2000/svg">
  <!-- Modern Interlocking Brand Mark -->
  <g transform="translate(256, 256)">
    <g stroke="#7c3aed" stroke-width="32" stroke-linecap="round" stroke-linejoin="round">
      <!-- 6 Rotated Interlocking Elements -->
      <path d="M-28.5,-90.4 C-28.5,-90.4 -92.2,-74.6 -108.7,0.4 C-113.8,23.5 -105.1,45.2 -105.1,45.2 L-42.3,10" transform="rotate(0)" />
      <path d="M-28.5,-90.4 C-28.5,-90.4 -92.2,-74.6 -108.7,0.4 C-113.8,23.5 -105.1,45.2 -105.1,45.2 L-42.3,10" transform="rotate(60)" />
      <path d="M-28.5,-90.4 C-28.5,-90.4 -92.2,-74.6 -108.7,0.4 C-113.8,23.5 -105.1,45.2 -105.1,45.2 L-42.3,10" transform="rotate(120)" />
      <path d="M-28.5,-90.4 C-28.5,-90.4 -92.2,-74.6 -108.7,0.4 C-113.8,23.5 -105.1,45.2 -105.1,45.2 L-42.3,10" transform="rotate(180)" />
      <path d="M-28.5,-90.4 C-28.5,-90.4 -92.2,-74.6 -108.7,0.4 C-113.8,23.5 -105.1,45.2 -105.1,45.2 L-42.3,10" transform="rotate(240)" />
      <path d="M-28.5,-90.4 C-28.5,-90.4 -92.2,-74.6 -108.7,0.4 C-113.8,23.5 -105.1,45.2 -105.1,45.2 L-42.3,10" transform="rotate(300)" />
    </g>
  </g>
</svg>
